<svg xmlns="http://www.w3.org/2000/svg" viewBox="0 0 64 64" id="favorite">
  <path d="M13,54.78a2.93,2.93,0,0,1-1.29-.29A3,3,0,0,1,10,51.78V47.93A7,7,0,0,1,4,41V25a6.94,6.94,0,0,1,6.86-7H12a1,1,0,0,1,0,2H10.86A4.94,4.94,0,0,0,6,25V41a5.07,5.07,0,0,0,5,5,1,1,0,0,1,1,1v4.78a1,1,0,0,0,.57.9,1,1,0,0,0,1.06-.13l7.74-6.32A1,1,0,0,1,22,46H42.14a5.52,5.52,0,0,0,.71,0h0a4.81,4.81,0,0,0,.83-.21,1,1,0,0,1,.64,1.9,6.44,6.44,0,0,1-1.17.28h0a6.77,6.77,0,0,1-1,.08H22.36L14.9,54.1A3,3,0,0,1,13,54.78Zm38-7a3,3,0,0,1-1.89-.68l-7.73-6.33a1,1,0,1,1,1.26-1.54l7.74,6.32A1,1,0,0,0,52,44.78V40a1,1,0,0,1,1-1,5.07,5.07,0,0,0,5-5V18a4.94,4.94,0,0,0-4.86-5H21.86A4.94,4.94,0,0,0,17,18V34a4.94,4.94,0,0,0,4.86,5H36.52a1,1,0,1,1,0,2H21.86A6.94,6.94,0,0,1,15,34V18a6.94,6.94,0,0,1,6.86-7H53.14A6.94,6.94,0,0,1,60,18V34a7,7,0,0,1-6,6.93v3.85a3,3,0,0,1-1.72,2.71A2.93,2.93,0,0,1,51,47.78ZM37,34.25a1.24,1.24,0,0,1-.27,0c-.19-.06-4.67-1.36-7.85-7-1.71-3-1.57-6.06.37-7.93a4.7,4.7,0,0,1,4-1.24A5.76,5.76,0,0,1,37,20.32a5.74,5.74,0,0,1,3.69-2.23,4.8,4.8,0,0,1,4,1.24c1.94,1.87,2.13,4.9.5,7.91a14,14,0,0,1-7.95,7A1.15,1.15,0,0,1,37,34.25ZM32.54,20a2.67,2.67,0,0,0-1.89.74c-1.5,1.44-1,3.78,0,5.5A13.26,13.26,0,0,0,37,32.2a12.64,12.64,0,0,0,6.44-5.91c.45-.83,1.77-3.69-.13-5.52a2.77,2.77,0,0,0-2.35-.7,3.93,3.93,0,0,0-2.79,2.05c-.38.77-.38.77-.52.9a1,1,0,0,1-1.37,0c-.14-.13-.14-.13-.53-.92a3.89,3.89,0,0,0-2.77-2A3.73,3.73,0,0,0,32.54,20ZM37,22.29h0Z"></path>
</svg>
