<svg xmlns="http://www.w3.org/2000/svg" width="24" height="24" fill="none" viewBox="0 0 24 24" id="coding">
  <path fill="#000" fill-rule="evenodd" d="M1.5 7.5C1.5 5.01472 3.51472 3 6 3H18C20.4853 3 22.5 5.01472 22.5 7.5V13.5C22.5 15.9853 20.4853 18 18 18H6C3.51472 18 1.5 15.9853 1.5 13.5V7.5ZM6 4C4.067 4 2.5 5.567 2.5 7.5V13.5C2.5 15.433 4.067 17 6 17H18C19.933 17 21.5 15.433 21.5 13.5V7.5C21.5 5.567 19.933 4 18 4H6Z" clip-rule="evenodd"></path>
  <path fill="#000" fill-rule="evenodd" d="M12 17C12.2761 17 12.5 17.2239 12.5 17.5V20.5C12.5 20.7761 12.2761 21 12 21C11.7239 21 11.5 20.7761 11.5 20.5V17.5C11.5 17.2239 11.7239 17 12 17Z" clip-rule="evenodd"></path>
  <path fill="#000" fill-rule="evenodd" d="M8.5 20.5C8.5 20.2239 8.72386 20 9 20H15C15.2761 20 15.5 20.2239 15.5 20.5 15.5 20.7761 15.2761 21 15 21H9C8.72386 21 8.5 20.7761 8.5 20.5zM13.7573 7.57133C13.9941 7.7134 14.0709 8.02053 13.9288 8.25732L10.9288 13.2573C10.7867 13.4941 10.4796 13.5709 10.2428 13.4288 10.006 13.2867 9.92926 12.9796 10.0713 12.7428L13.0713 7.74283C13.2134 7.50604 13.5205 7.42926 13.7573 7.57133zM7.88407 7.67992C8.06085 7.89206 8.03219 8.20734 7.82005 8.38412L5.74192 10.1159C5.50204 10.3158 5.50204 10.6842 5.74192 10.8841L7.82005 12.6159C8.03219 12.7927 8.06085 13.108 7.88407 13.3201 7.70729 13.5322 7.39201 13.5609 7.17987 13.3841L5.10174 11.6523C4.3821 11.0527 4.3821 9.94737 5.10173 9.34768L7.17987 7.6159C7.39201 7.43912 7.70729 7.46778 7.88407 7.67992zM16.1159 7.67992C15.9391 7.89206 15.9678 8.20734 16.1799 8.38412L18.2581 10.1159C18.498 10.3158 18.498 10.6842 18.2581 10.8841L16.1799 12.6159C15.9678 12.7927 15.9391 13.108 16.1159 13.3201 16.2927 13.5322 16.608 13.5609 16.8201 13.3841L18.8983 11.6523C19.6179 11.0527 19.6179 9.94737 18.8983 9.34768L16.8201 7.6159C16.608 7.43912 16.2927 7.46778 16.1159 7.67992z" clip-rule="evenodd"></path>
</svg>
