<svg xmlns="http://www.w3.org/2000/svg" width="48" height="48" fill="none" id="social-media">
  <g clip-path="url(#a)">
    <path fill="#000" d="M35.384 22.248q-.309-.149-.63-.285c-.37-6.827-4.1-10.735-10.363-10.775h-.085c-3.747 0-6.863 1.599-8.78 4.509l3.444 2.363c1.433-2.174 3.681-2.637 5.337-2.637h.057c2.063.013 3.619.612 4.626 1.782.733.851 1.224 2.028 1.466 3.512-1.828-.31-3.806-.406-5.92-.285-5.955.343-9.783 3.816-9.526 8.642.13 2.448 1.35 4.554 3.434 5.93 1.762 1.163 4.03 1.732 6.39 1.603 3.114-.17 5.557-1.359 7.261-3.532 1.295-1.65 2.114-3.788 2.475-6.482 1.484.896 2.584 2.074 3.192 3.491 1.033 2.41 1.093 6.367-2.137 9.594-2.83 2.827-6.231 4.05-11.372 4.088-5.702-.042-10.015-1.87-12.818-5.435C8.809 34.993 7.451 30.17 7.4 24c.05-6.17 1.408-10.991 4.034-14.329 2.803-3.564 7.116-5.393 12.818-5.436 5.744.043 10.132 1.88 13.043 5.462 1.428 1.757 2.504 3.966 3.213 6.54l4.037-1.076c-.86-3.17-2.213-5.902-4.055-8.167C36.76 2.403 31.301.05 24.267 0h-.028C17.22.05 11.823 2.411 8.197 7.021c-3.227 4.102-4.89 9.81-4.947 16.964v.033c.056 7.154 1.72 12.862 4.947 16.964 3.626 4.609 9.023 6.97 16.042 7.02h.028c6.24-.044 10.639-1.678 14.263-5.298 4.74-4.736 4.597-10.673 3.035-14.317-1.121-2.614-3.258-4.737-6.18-6.139M24.61 32.378c-2.61.147-5.321-1.024-5.455-3.534-.1-1.86 1.324-3.936 5.615-4.184a25 25 0 0 1 1.448-.042c1.558 0 3.017.152 4.343.442-.495 6.175-3.395 7.178-5.95 7.318"></path>
  </g>
  <defs>
    <clipPath id="a">
      <path fill="#fff" d="M0 .001h48v48H0z"></path>
    </clipPath>
  </defs>
</svg>
